<?xml version="1.0" encoding="utf-8"?>
<!-- Generator: Adobe Illustrator 26.1.0, SVG Export Plug-In . SVG Version: 6.00 Build 0)  -->
<svg version="1.1" xmlns="http://www.w3.org/2000/svg" xmlns:xlink="http://www.w3.org/1999/xlink" x="0px" y="0px"
	 viewBox="0 0 283.5 283.5" style="enable-background:new 0 0 283.5 283.5;" xml:space="preserve">
<style type="text/css">
	.st0{opacity:0.5;}
	.st1{opacity:0.1;fill:#355571;}
	.st2{fill:none;stroke:#62ACB6;stroke-miterlimit:10;}
	.st3{fill:none;stroke:#666565;stroke-miterlimit:10;}
	.st4{fill:#62ACB6;}
	.st5{fill:none;stroke:#FFFFFF;stroke-miterlimit:10;}
	.st6{fill:none;stroke:#666565;stroke-width:0.75;stroke-miterlimit:10;}
	.st7{fill:#385B79;}
	.st8{fill:none;stroke:#385B79;stroke-linecap:round;stroke-miterlimit:10;}
	.st9{fill:#FFFFFF;}
	.st10{fill:#72737A;}
	.st11{display:none;}
	.st12{display:inline;}
	.st13{fill:#76777E;}
</style>
<g id="NO_TOCAR">
	<g>
		<g>
			<path class="st4" d="M152.8,154l-14.7,15.4c-0.3,0.3-0.7,0.3-1,0l-5.4-5.6l0.1-0.1c1.6-2.9,1.9-6.4,1-10
				c-0.1-0.4-0.2-0.8-0.4-1.2c-0.8,0.7-1.8,1-2.8,1h-1.8c0.2,0.5,0.3,0.9,0.4,1.3c0.7,2.9,0.2,5.8-1.4,7.7l-1.4,1.6l8.3,8.6
				c2.2,2.1,5.6,2,7.7-0.2l17.6-18.5C157,154.5,154.9,154.4,152.8,154z"/>
			<path class="st4" d="M38.8,137.1c-0.6-0.6-1.4-1.1-2.2-1.5c-0.8-0.4-1.8-0.6-2.7-0.6h-5.7c-0.5,0-0.8-0.2-1.1-0.5
				c-0.3-0.3-0.5-0.7-0.5-1.1s0.2-0.8,0.5-1.1c0.3-0.3,0.7-0.5,1.1-0.5h11.3v-5.4H28.1c-1,0-1.9,0.2-2.7,0.6
				c-0.9,0.4-1.6,0.9-2.2,1.5c-0.6,0.6-1.1,1.4-1.5,2.2c-0.4,0.9-0.5,1.8-0.5,2.7c0,1,0.2,1.9,0.6,2.7c0.4,0.9,0.9,1.6,1.5,2.2
				c0.6,0.6,1.4,1.1,2.2,1.5c0.9,0.4,1.8,0.6,2.7,0.6h5.7c0.5,0,0.8,0.2,1.1,0.5c0.3,0.3,0.4,0.7,0.4,1.1c0,0.4-0.1,0.8-0.4,1.1
				c-0.3,0.3-0.7,0.5-1.1,0.5H22.6v5.4h11.3c0.9,0,1.9-0.2,2.7-0.6c0.8-0.4,1.6-0.9,2.2-1.5c0.6-0.6,1.1-1.4,1.5-2.2
				c0.4-0.8,0.5-1.8,0.5-2.7c0-1-0.2-1.9-0.6-2.7C39.9,138.5,39.4,137.7,38.8,137.1z"/>
			<path class="st4" d="M56.2,135.8l-0.1-0.1c-1.4-1.5-2.9-3.1-4.3-4.6c-1.4-1.5-2.8-3-4.2-4.6h-3.8V149h5.4v-12.9l3.2,3.4l0.1,0.1
				l2.2,2.3h3.2l5.5-6V149h5.4v-22.6h-3.9L56.2,135.8z"/>
			<path class="st4" d="M109.3,140.3c0.8-0.1,1.6-0.4,2.3-0.8c0.7-0.4,1.3-0.9,1.8-1.5c0.5-0.6,0.9-1.3,1.2-2.1
				c0.3-0.8,0.4-1.6,0.4-2.4c0-0.5-0.1-1-0.1-1.4l0-0.2h0l-0.1-0.4c-0.1-0.2-0.2-0.5-0.3-0.7c-0.4-0.9-0.9-1.6-1.5-2.2
				c-0.6-0.6-1.4-1.1-2.2-1.5s-1.8-0.6-2.7-0.6H94.3V149h5.4v-8.6h2.8l0,0.1l5.9,8.5h6.6l-6-8.6L109.3,140.3z M108.1,135h-8.3v-3.2
				h8.3c0.5,0,0.8,0.2,1.1,0.5c0.3,0.3,0.5,0.7,0.5,1.2c0,0.4-0.2,0.8-0.5,1.1C108.9,134.9,108.5,135,108.1,135z"/>
			<polygon class="st4" points="129.1,149 129.1,131.8 137.9,131.8 137.9,149 143.3,149 143.3,126.4 115.1,126.4 115.1,131.8 
				123.7,131.8 123.7,149 			"/>
			<path class="st4" d="M78.5,126.4L69.1,149H75l1.3-3.1h10.6l1.3,3.1h5.8l-9.4-22.6H78.5z M78.5,140.6l3.1-7.3l3.1,7.3H78.5z"/>
			<path class="st4" d="M186.8,145.9l-8.2-11.8l0.1-0.1l10.1-11c1.5-2.1,1.3-5-0.5-6.9l-0.1-0.1l-8.7-8.6l-1.6,1.4
				c-0.2,0.1-3.9,3.2-9,1.2c-2.6-1-4.6-3.5-5.3-6.5c-0.7-2.9-0.2-5.8,1.4-7.7l1.4-1.6l-8.3-8.6c-2.2-2.1-5.6-2-7.7,0.2L115.7,122
				h6.5l31.4-32.9c0.3-0.3,0.7-0.3,1,0l5.4,5.6l-0.1,0.1c-1.6,2.9-1.9,6.4-1,10c1.1,4.5,4.2,8.1,8.2,9.7c5.3,2.1,9.7,0.5,11.9-0.7
				l0.1-0.1l5.8,5.7l-0.1,0.1c-2.1,2.3-4.2,4.6-6.3,6.9c-2.1,2.3-4.3,4.7-6.4,6.9l-0.3,0.3v-7.1h-5.4v4.8l-0.3-0.4
				c-0.2-0.3-0.4-0.6-0.6-0.8c-0.8-0.9-1.6-1.7-2.6-2.3c-1-0.6-2-1.1-3.2-1.5c-1.1-0.3-2.3-0.5-3.5-0.5c-1.7,0-3.2,0.3-4.7,1
				c-1.5,0.6-2.8,1.5-3.8,2.6c-1.1,1.1-1.9,2.4-2.6,3.8c-0.6,1.5-1,3-1,4.7c0,1.7,0.3,3.2,1,4.7c0.6,1.5,1.5,2.8,2.6,3.8
				c1.1,1.1,2.4,2,3.8,2.6c1.5,0.6,3,1,4.7,1c1.2,0,2.3-0.2,3.4-0.5c1.1-0.3,2.2-0.8,3.1-1.4c1-0.6,1.8-1.4,2.6-2.2
				c0.3-0.3,0.5-0.6,0.8-1l0.3-0.4v4.9h5.4v-7.5l3.1-3.3l14.5,20.8l4.4-3.1l-4.8-6.9h17.6v-5.4h-14.3v-3.2h11.1V135h-11.1v-3.2h22.5
				V149h5.4v-17.2h8.6v-5.4h-41.9V145.9z M166.3,142.5l-4-1.8c-0.6,1.1-1.4,2.1-2.5,2.8c-1.1,0.7-2.4,1.1-3.7,1.1
				c-0.9,0-1.8-0.2-2.7-0.5s-1.6-0.9-2.2-1.5c-0.6-0.6-1.1-1.3-1.5-2.2c-0.4-0.8-0.5-1.7-0.5-2.7c0-0.9,0.2-1.8,0.5-2.7
				c0.4-0.8,0.9-1.6,1.5-2.2c0.6-0.6,1.3-1.1,2.2-1.5c0.8-0.4,1.7-0.5,2.7-0.5c1.4,0,2.6,0.4,3.8,1.2c1.1,0.7,1.9,1.7,2.5,2.9l4-1.7
				V142.5z"/>
			<path class="st4" d="M249.1,139.3c-0.4-0.8-0.9-1.6-1.5-2.2c-0.6-0.6-1.4-1.1-2.2-1.5c-0.8-0.4-1.8-0.6-2.7-0.6h-5.7
				c-0.5,0-0.8-0.2-1.1-0.5c-0.3-0.3-0.5-0.7-0.5-1.1s0.2-0.8,0.5-1.1c0.3-0.3,0.7-0.5,1.1-0.5h11.3v-5.4h-11.3
				c-1,0-1.9,0.2-2.7,0.6c-0.9,0.4-1.6,0.9-2.2,1.5c-0.6,0.6-1.1,1.4-1.5,2.2c-0.4,0.9-0.5,1.8-0.5,2.7c0,1,0.2,1.9,0.6,2.7
				c0.4,0.9,0.9,1.6,1.5,2.2c0.6,0.6,1.4,1.1,2.2,1.5c0.9,0.4,1.8,0.6,2.7,0.6h5.7c0.5,0,0.8,0.2,1.1,0.5c0.3,0.3,0.4,0.7,0.4,1.1
				c0,0.4-0.1,0.8-0.4,1.1c-0.3,0.3-0.7,0.5-1.1,0.5h-11.3v5.4h11.3c0.9,0,1.9-0.2,2.7-0.6c0.8-0.4,1.6-0.9,2.2-1.5
				c0.6-0.6,1.1-1.4,1.5-2.2c0.4-0.8,0.6-1.8,0.6-2.7C249.6,141.1,249.4,140.2,249.1,139.3z"/>
		</g>
		<g>
			<polygon class="st4" points="146.9,103.8 129.8,122.1 136.8,122.1 150.3,107 			"/>
			<polygon class="st4" points="149.2,122 155.8,122 161.1,116.8 157.5,113.5 			"/>
			<polygon class="st4" points="138.7,122 141.4,122 153.3,109.5 151.8,108.1 			"/>
			<polygon class="st4" points="143.2,122 144,122 154.7,110.8 154.3,110.4 			"/>
			<polygon class="st4" points="145.6,122 147.1,122 156.4,112.4 155.6,111.6 			"/>
			<polygon class="st4" points="157.4,122 158.2,122 162.4,117.7 162,117.3 			"/>
			<polygon class="st4" points="159.8,122 161.3,122 164.1,119.2 163.3,118.5 			"/>
		</g>
	</g>
</g>
<g id="EMPRESA">
</g>
<g id="EVENTO" class="st11">
</g>
<g id="EDITABLE" class="st11">
</g>
</svg>
